<?xml version="1.0" encoding="utf-8"?>
<!-- Generator: Adobe Illustrator 22.0.1, SVG Export Plug-In . SVG Version: 6.00 Build 0)  -->
<svg version="1.1" id="Layer_1" xmlns="http://www.w3.org/2000/svg" xmlns:xlink="http://www.w3.org/1999/xlink" x="0px" y="0px"
	 viewBox="0 0 130 130" style="enable-background:new 0 0 130 130;" xml:space="preserve">
<style type="text/css">
	.st0{fill:#FEFEF6;}
	.st1{fill:#4B4A49;}
	.st2{fill:#30C5B9;}
	.st3{fill:#F7F0E8;}
	.st4{fill:#40403F;}
</style>
<g>
	<path class="st0" d="M13,1h52v128H13c-6.6,0-12-5.4-12-12V13C1,6.4,6.4,1,13,1z"/>
</g>
<g>
	<path class="st1" d="M117,1H65v128h52c6.6,0,12-5.4,12-12V13C129,6.4,123.6,1,117,1z"/>
</g>
<g>
	<path class="st2" d="M23.6,70.1c0,0.4-0.1,0.8-0.4,1.1s-0.6,0.5-0.9,0.5c-0.2,0-0.4-0.1-0.6-0.2c-0.2-0.1-0.5-0.2-0.7-0.4l-8.4-4.9
		c-0.2-0.1-0.4-0.3-0.5-0.5c-0.1-0.2-0.2-0.4-0.2-0.7c0-0.3,0.1-0.5,0.2-0.7c0.1-0.2,0.3-0.4,0.5-0.5l8.4-4.8
		c0.5-0.3,0.9-0.4,1.2-0.4c0.3,0,0.7,0.2,1,0.5c0.3,0.3,0.4,0.7,0.4,1c0,0.4-0.2,0.7-0.6,0.9l-6.8,4l6.8,4.1
		C23.5,69.3,23.6,69.7,23.6,70.1z"/>
	<path class="st2" d="M26.2,74.8c-0.3-0.2-0.4-0.6-0.4-0.9c0-0.2,0.1-0.4,0.2-0.6l10.4-21.4c0.1-0.2,0.3-0.4,0.5-0.6
		c0.2-0.1,0.4-0.2,0.7-0.2c0.3,0,0.6,0.1,0.9,0.4c0.3,0.2,0.4,0.6,0.4,0.9c0,0.2-0.1,0.4-0.2,0.6L28.2,74.4
		c-0.1,0.2-0.3,0.4-0.5,0.6c-0.2,0.1-0.4,0.2-0.7,0.2C26.8,75.1,26.5,75,26.2,74.8z"/>
	<path class="st2" d="M50.7,58.4c0.9,0.5,1.3,1.1,1.3,1.8c0,0.4-0.1,0.7-0.3,1c-0.2,0.3-0.5,0.4-0.9,0.4c-0.3,0-0.5,0-0.7-0.1
		s-0.3-0.2-0.5-0.3c-0.2-0.1-0.3-0.2-0.5-0.3c-0.2-0.1-0.4-0.2-0.8-0.2c-0.3-0.1-0.6-0.1-0.8-0.1c-1.3,0-2.3,0.4-3,1.2
		s-1.1,1.8-1.1,3.1c0,1.2,0.4,2.3,1.1,3.1c0.7,0.8,1.7,1.2,2.8,1.2c0.8,0,1.5-0.1,1.9-0.3c0.1-0.1,0.2-0.1,0.4-0.3
		c0.2-0.1,0.3-0.2,0.5-0.3c0.2-0.1,0.3-0.1,0.6-0.1c0.4,0,0.8,0.1,1,0.4c0.2,0.3,0.4,0.6,0.4,1.1c0,0.4-0.2,0.8-0.7,1.2
		c-0.5,0.4-1.1,0.6-1.9,0.9c-0.8,0.2-1.6,0.3-2.5,0.3c-1.3,0-2.5-0.3-3.5-0.9c-1-0.6-1.8-1.5-2.3-2.6c-0.5-1.1-0.8-2.3-0.8-3.6
		c0-1.4,0.3-2.6,0.9-3.7c0.6-1.1,1.4-1.9,2.4-2.5s2.2-0.9,3.5-0.9C48.7,57.7,49.8,57.9,50.7,58.4z"/>
	<path class="st2" d="M66.8,68.5c-0.6,1.1-1.5,1.9-2.5,2.5s-2.2,0.9-3.5,0.9c-1.3,0-2.5-0.3-3.5-0.9c-1.1-0.6-1.9-1.4-2.5-2.5
		c-0.6-1.1-0.9-2.3-0.9-3.7c0-1.4,0.3-2.6,0.9-3.7s1.5-1.9,2.5-2.5c1.1-0.6,2.2-0.9,3.5-0.9c1.3,0,2.5,0.3,3.5,0.9s1.9,1.5,2.5,2.5
		s0.9,2.3,0.9,3.7C67.7,66.2,67.4,67.4,66.8,68.5z M64.1,62.6c-0.4-0.7-0.8-1.2-1.4-1.5c-0.6-0.4-1.2-0.5-2-0.5
		c-0.7,0-1.4,0.2-2,0.5c-0.6,0.4-1.1,0.9-1.4,1.5c-0.4,0.7-0.5,1.4-0.5,2.2c0,0.8,0.2,1.6,0.5,2.2c0.4,0.7,0.8,1.2,1.4,1.5
		c0.6,0.4,1.2,0.5,2,0.5c0.7,0,1.4-0.2,2-0.5c0.6-0.4,1.1-0.9,1.4-1.5s0.5-1.4,0.5-2.2C64.6,64,64.4,63.2,64.1,62.6z"/>
	<path class="st2" d="M82.5,53.1c0.3,0.3,0.4,0.7,0.4,1.1v15.9c0,0.4-0.1,0.8-0.4,1.1c-0.3,0.3-0.7,0.5-1.1,0.5
		c-0.4,0-0.8-0.1-1.1-0.4c-0.3-0.3-0.4-0.7-0.5-1.1c-0.4,0.5-1,0.9-1.7,1.3c-0.7,0.4-1.5,0.5-2.3,0.5c-1.2,0-2.3-0.3-3.2-0.9
		c-1-0.6-1.7-1.5-2.3-2.5c-0.6-1.1-0.8-2.3-0.8-3.7c0-1.4,0.3-2.6,0.8-3.7c0.5-1.1,1.3-1.9,2.2-2.5s2-0.9,3.1-0.9
		c0.8,0,1.6,0.1,2.3,0.4s1.3,0.7,1.8,1.1v-5c0-0.4,0.1-0.8,0.4-1.1c0.3-0.3,0.7-0.4,1.1-0.4C81.8,52.7,82.2,52.8,82.5,53.1z
		 M78.9,67.9c0.7-0.8,1.1-1.8,1.1-3.1c0-1.2-0.4-2.3-1.1-3.1c-0.7-0.8-1.6-1.2-2.7-1.2c-1.1,0-2,0.4-2.7,1.2
		c-0.7,0.8-1.1,1.9-1.1,3.1c0,1.2,0.3,2.3,1,3.1c0.7,0.8,1.6,1.2,2.7,1.2S78.2,68.7,78.9,67.9z"/>
	<path class="st2" d="M98.1,65.5c-0.3,0.3-0.7,0.4-1.1,0.4h-8.5c0.2,1,0.7,1.8,1.4,2.4c0.7,0.6,1.6,0.9,2.5,0.9
		c0.7,0,1.3-0.1,1.6-0.2c0.4-0.1,0.7-0.3,0.9-0.4s0.4-0.2,0.5-0.3c0.3-0.2,0.6-0.2,0.9-0.2c0.4,0,0.7,0.1,0.9,0.4
		c0.3,0.3,0.4,0.6,0.4,0.9c0,0.5-0.2,0.9-0.7,1.3c-0.5,0.4-1.1,0.7-1.9,1c-0.8,0.3-1.6,0.4-2.4,0.4c-1.4,0-2.7-0.3-3.8-0.9
		c-1.1-0.6-1.9-1.4-2.5-2.5c-0.6-1.1-0.9-2.2-0.9-3.6c0-1.5,0.3-2.8,0.9-3.9c0.6-1.1,1.4-2,2.4-2.6c1-0.6,2.1-0.9,3.2-0.9
		c1.1,0,2.2,0.3,3.2,0.9c1,0.6,1.8,1.4,2.4,2.5s0.9,2.2,0.9,3.4C98.6,64.9,98.4,65.2,98.1,65.5z M88.6,63.3h6.7v-0.2
		c-0.1-0.7-0.4-1.3-1.1-1.9c-0.6-0.5-1.4-0.8-2.2-0.8C90.1,60.5,88.9,61.4,88.6,63.3z"/>
	<path class="st2" d="M112.2,64.6c0.1,0.2,0.2,0.4,0.2,0.7c0,0.3-0.1,0.5-0.2,0.7c-0.1,0.2-0.3,0.4-0.5,0.5l-8.4,4.8
		c-0.5,0.3-0.9,0.4-1.2,0.4c-0.3,0-0.7-0.2-1-0.5c-0.3-0.3-0.5-0.7-0.5-1c0-0.4,0.2-0.7,0.6-0.9l6.8-4l-6.8-4.1
		c-0.4-0.2-0.6-0.5-0.6-1c0-0.4,0.1-0.8,0.4-1.1c0.3-0.3,0.6-0.5,0.9-0.5c0.2,0,0.4,0.1,0.6,0.2s0.5,0.2,0.7,0.4l8.4,4.9
		C111.9,64.2,112.1,64.4,112.2,64.6z"/>
</g>
<g>
	<path class="st3" d="M65,18V1H13C6.4,1,1,6.4,1,13v5H65z"/>
</g>
<g>
	<path class="st4" d="M65,18V1h52c6.6,0,12,5.4,12,12v5H65z"/>
</g>
</svg>
